<svg width="46" height="68.2" viewBox="0 0 46 68.2" xmlns="http://www.w3.org/2000/svg"><g id="svgGroup" stroke-linecap="round" fill-rule="evenodd" font-size="9pt" stroke="#000" stroke-width="0.25mm" fill="#000" style="stroke:#000;stroke-width:0.25mm;fill:#000"><path d="M 5.3 27.3 L 5.4 16.5 Q 5.4 12.2 5.2 11.8 A 4.882 4.882 0 0 1 4.649 11.114 Q 3.848 9.946 2.781 7.511 A 61.219 61.219 0 0 1 2.35 6.5 A 71.852 71.852 0 0 1 1.755 5.03 Q 0.6 2.075 0.6 1.1 A 1.818 1.818 0 0 1 1.389 0.842 Q 5.95 0 35.7 0 Q 42.894 0 43.927 0.293 A 0.2 0.2 0 0 1 44.1 0.4 Q 44.1 2.369 43.265 4.689 A 18.705 18.705 0 0 1 43.15 5 A 26.357 26.357 0 0 1 42.439 6.701 Q 42.068 7.502 41.683 8.163 A 11.993 11.993 0 0 1 41.15 9 A 11.513 11.513 0 0 1 40.809 9.463 Q 40.109 10.364 39.737 10.364 A 0.273 0.273 0 0 1 39.65 10.35 A 1.559 1.559 0 0 0 39.369 10.299 Q 38.673 10.218 36.566 10.203 A 144.914 144.914 0 0 0 35.55 10.2 Q 32.755 10.2 28.29 10.464 A 287.024 287.024 0 0 0 25.4 10.65 Q 20.091 11.018 18.718 11.485 A 1.135 1.135 0 0 0 18.3 11.7 A 1.195 1.195 0 0 0 18.104 12.232 Q 17.7 14.169 17.7 22.7 L 17.8 26.9 A 229.272 229.272 0 0 1 20.038 26.856 Q 22.59 26.818 26.152 26.806 A 1019.131 1019.131 0 0 1 29.6 26.8 A 333.831 333.831 0 0 1 31.428 26.805 Q 37.4 26.838 37.4 27.1 Q 37.4 30.7 35 35.3 A 23.999 23.999 0 0 1 34.75 35.734 Q 34.071 36.885 33.9 36.8 Q 31.3 36.8 25 37.25 Q 18.984 37.68 17.801 38.246 A 1.225 1.225 0 0 0 17.7 38.3 A 0.481 0.481 0 0 0 17.677 38.453 Q 17.6 39.438 17.6 46.7 A 229.587 229.587 0 0 0 17.608 48.653 Q 17.661 54.939 18.083 55.481 A 0.205 0.205 0 0 0 18.1 55.5 A 2.828 2.828 0 0 0 19.259 56.064 Q 22.747 57.1 35.3 57.1 A 178.478 178.478 0 0 0 38.028 57.081 Q 42.116 57.018 43.8 56.75 A 86.382 86.382 0 0 1 44.207 56.686 Q 45.869 56.43 45.99 56.489 A 0.014 0.014 0 0 1 46 56.5 A 7.252 7.252 0 0 1 46 56.556 Q 45.986 58.281 45.154 60.467 A 21.656 21.656 0 0 1 44.4 62.2 A 25.233 25.233 0 0 1 43.276 64.28 Q 42.665 65.288 42.026 66.081 A 11.183 11.183 0 0 1 41 67.2 A 1.967 1.967 0 0 1 40.126 67.527 Q 37.158 68.157 24.793 68.197 A 532.806 532.806 0 0 1 23.05 68.2 Q 6.742 68.2 5.569 67.459 A 0.256 0.256 0 0 1 5.5 67.4 Q 4.915 66.912 4.9 58.187 A 269.569 269.569 0 0 1 4.9 57.75 Q 4.9 48.6 5.1 38.4 Q 3.877 37.313 2.722 35.393 A 25.337 25.337 0 0 1 1.65 33.4 Q 0.585 31.205 0.207 29.427 A 8.823 8.823 0 0 1 0 27.6 A 0.13 0.13 0 0 1 0.083 27.573 Q 0.663 27.475 5.3 27.3 Z" vector-effect="non-scaling-stroke"/></g></svg>