<svg width="82.8" height="122.76" viewBox="0 0 82.8 122.76" xmlns="http://www.w3.org/2000/svg"><g id="svgGroup" stroke-linecap="round" fill-rule="evenodd" font-size="9pt" stroke="#000" stroke-width="0.25mm" fill="#000" style="stroke:#000;stroke-width:0.25mm;fill:#000"><path d="M 9.54 49.14 L 9.72 29.7 Q 9.72 21.96 9.36 21.24 Q 7.38 19.26 4.23 11.7 Q 1.67 5.557 1.191 2.98 A 5.628 5.628 0 0 1 1.08 1.98 A 3.272 3.272 0 0 1 2.5 1.516 Q 10.71 0 64.26 0 A 522.693 522.693 0 0 1 67.804 0.011 Q 79.38 0.09 79.38 0.72 Q 79.38 4.264 77.877 8.44 A 33.669 33.669 0 0 1 77.67 9 A 47.443 47.443 0 0 1 76.39 12.062 Q 75.723 13.504 75.03 14.693 A 21.587 21.587 0 0 1 74.07 16.2 A 20.724 20.724 0 0 1 73.457 17.034 Q 72.042 18.854 71.37 18.63 A 2.807 2.807 0 0 0 70.865 18.538 Q 69.611 18.393 65.818 18.366 A 260.846 260.846 0 0 0 63.99 18.36 Q 57.42 18.36 45.72 19.17 A 230.306 230.306 0 0 0 42.961 19.377 Q 35.786 19.96 33.693 20.673 A 2.043 2.043 0 0 0 32.94 21.06 A 2.151 2.151 0 0 0 32.587 22.018 Q 31.907 25.28 31.863 38.935 A 601.681 601.681 0 0 0 31.86 40.86 L 32.04 48.42 A 412.686 412.686 0 0 1 36.067 48.341 Q 40.662 48.272 47.074 48.25 A 1834.459 1834.459 0 0 1 53.28 48.24 A 600.899 600.899 0 0 1 56.571 48.248 Q 65.557 48.298 67.031 48.636 A 0.341 0.341 0 0 1 67.32 48.78 A 23.543 23.543 0 0 1 66.607 54.342 Q 65.972 56.951 64.772 59.796 A 50.859 50.859 0 0 1 63 63.54 A 43.198 43.198 0 0 1 62.551 64.321 Q 61.411 66.251 61.067 66.251 A 0.103 0.103 0 0 1 61.02 66.24 Q 56.71 66.24 46.752 66.927 A 722.28 722.28 0 0 0 45 67.05 Q 33.66 67.86 31.86 68.94 Q 31.703 69.097 31.683 80.42 A 2029.231 2029.231 0 0 0 31.68 84.06 A 413.254 413.254 0 0 0 31.694 87.576 Q 31.791 98.89 32.55 99.866 A 0.369 0.369 0 0 0 32.58 99.9 A 5.091 5.091 0 0 0 34.666 100.915 Q 40.944 102.78 63.54 102.78 A 321.261 321.261 0 0 0 68.45 102.745 Q 74.515 102.652 77.64 102.308 A 25.357 25.357 0 0 0 78.84 102.15 A 155.498 155.498 0 0 1 79.573 102.035 Q 82.8 101.538 82.8 101.7 Q 82.8 104.797 81.32 108.726 A 38.72 38.72 0 0 1 79.92 111.96 A 45.42 45.42 0 0 1 77.897 115.703 Q 76.796 117.518 75.647 118.946 A 20.13 20.13 0 0 1 73.8 120.96 A 3.54 3.54 0 0 1 72.226 121.549 Q 66.518 122.76 41.49 122.76 Q 12.135 122.76 10.024 121.427 A 0.46 0.46 0 0 1 9.9 121.32 Q 8.82 120.42 8.82 103.95 Q 8.82 87.48 9.18 69.12 Q 5.94 66.24 2.97 60.12 A 39.961 39.961 0 0 1 1.404 56.471 Q 0 52.65 0 49.68 A 0.235 0.235 0 0 1 0.149 49.632 Q 1.037 49.481 7.217 49.231 A 827.154 827.154 0 0 1 9.54 49.14 Z" vector-effect="non-scaling-stroke"/></g></svg>